<?xml version="1.0" encoding="UTF-8" standalone="no"?>
<!DOCTYPE svg PUBLIC "-//W3C//DTD SVG 1.1//EN"
 "http://www.w3.org/Graphics/SVG/1.1/DTD/svg11.dtd">
<!-- Generated by graphviz version 2.38.0 (20140413.2041)
 -->
<!-- Title: controllers_diagram Pages: 1 -->
<svg width="890pt" height="735pt"
 viewBox="0.00 0.00 889.85 735.00" xmlns="http://www.w3.org/2000/svg" xmlns:xlink="http://www.w3.org/1999/xlink">
<g id="graph0" class="graph" transform="scale(1 1) rotate(0) translate(345.879 443.5)">
<title>controllers_diagram</title>
<polygon fill="none" stroke="none" points="-345.879,291.5 -345.879,-443.5 543.966,-443.5 543.966,291.5 -345.879,291.5"/>
<!-- _diagram_info -->
<g id="node1" class="node"><title>_diagram_info</title>
<text text-anchor="start" x="80.3123" y="-419.1" font-family="Times,serif" font-size="13.00">Controllers diagram</text>
<text text-anchor="start" x="80.3123" y="-406.1" font-family="Times,serif" font-size="13.00">Date: Sep 15 2017 &#45; 13:01</text>
<text text-anchor="start" x="80.3123" y="-393.1" font-family="Times,serif" font-size="13.00">Migration version: 20170913002902</text>
<text text-anchor="start" x="80.3123" y="-380.1" font-family="Times,serif" font-size="13.00">Generated by RailRoady 1.5.2</text>
<text text-anchor="start" x="80.3123" y="-367.1" font-family="Times,serif" font-size="13.00">http://railroady.prestonlee.com</text>
</g>
<!-- Api::DemandTravelController -->
<g id="node2" class="node"><title>Api::DemandTravelController</title>
<path fill="none" stroke="black" d="M138.101,-127C138.101,-127 299.899,-127 299.899,-127 305.899,-127 311.899,-133 311.899,-139 311.899,-139 311.899,-261 311.899,-261 311.899,-267 305.899,-273 299.899,-273 299.899,-273 138.101,-273 138.101,-273 132.101,-273 126.101,-267 126.101,-261 126.101,-261 126.101,-139 126.101,-139 126.101,-133 132.101,-127 138.101,-127"/>
<text text-anchor="middle" x="219" y="-257.8" font-family="Times,serif" font-size="14.00">Api::DemandTravelController</text>
<polyline fill="none" stroke="black" points="126.101,-251 311.899,-251 "/>
<text text-anchor="start" x="134.101" y="-235.8" font-family="Times,serif" font-size="14.00">all</text>
<text text-anchor="start" x="134.101" y="-221.8" font-family="Times,serif" font-size="14.00">create</text>
<text text-anchor="start" x="134.101" y="-207.8" font-family="Times,serif" font-size="14.00">default_serializer_options</text>
<text text-anchor="start" x="134.101" y="-193.8" font-family="Times,serif" font-size="14.00">for_user</text>
<text text-anchor="start" x="134.101" y="-179.8" font-family="Times,serif" font-size="14.00">show</text>
<polyline fill="none" stroke="black" points="126.101,-173 311.899,-173 "/>
<polyline fill="none" stroke="black" points="126.101,-149 311.899,-149 "/>
<text text-anchor="start" x="134.101" y="-133.8" font-family="Times,serif" font-size="14.00">_layout</text>
</g>
<!-- Api::OfferTravelController -->
<g id="node3" class="node"><title>Api::OfferTravelController</title>
<path fill="none" stroke="black" d="M299.783,287C299.783,287 444.217,287 444.217,287 450.217,287 456.217,281 456.217,275 456.217,275 456.217,139 456.217,139 456.217,133 450.217,127 444.217,127 444.217,127 299.783,127 299.783,127 293.783,127 287.783,133 287.783,139 287.783,139 287.783,275 287.783,275 287.783,281 293.783,287 299.783,287"/>
<text text-anchor="middle" x="372" y="142.2" font-family="Times,serif" font-size="14.00">Api::OfferTravelController</text>
<polyline fill="none" stroke="black" points="287.783,149 456.217,149 "/>
<text text-anchor="start" x="295.783" y="164.2" font-family="Times,serif" font-size="14.00">all</text>
<text text-anchor="start" x="295.783" y="178.2" font-family="Times,serif" font-size="14.00">create</text>
<text text-anchor="start" x="295.783" y="192.2" font-family="Times,serif" font-size="14.00">default_serializer_options</text>
<text text-anchor="start" x="295.783" y="206.2" font-family="Times,serif" font-size="14.00">for_user</text>
<text text-anchor="start" x="295.783" y="220.2" font-family="Times,serif" font-size="14.00">show</text>
<text text-anchor="start" x="295.783" y="234.2" font-family="Times,serif" font-size="14.00">travel_for_state</text>
<polyline fill="none" stroke="black" points="287.783,241 456.217,241 "/>
<polyline fill="none" stroke="black" points="287.783,265 456.217,265 "/>
<text text-anchor="start" x="295.783" y="280.2" font-family="Times,serif" font-size="14.00">_layout</text>
</g>
<!-- Api::TravelController -->
<g id="node4" class="node"><title>Api::TravelController</title>
<path fill="none" stroke="black" d="M318.303,-307C318.303,-307 455.697,-307 455.697,-307 461.697,-307 467.697,-313 467.697,-319 467.697,-319 467.697,-427 467.697,-427 467.697,-433 461.697,-439 455.697,-439 455.697,-439 318.303,-439 318.303,-439 312.303,-439 306.303,-433 306.303,-427 306.303,-427 306.303,-319 306.303,-319 306.303,-313 312.303,-307 318.303,-307"/>
<text text-anchor="middle" x="387" y="-423.8" font-family="Times,serif" font-size="14.00">Api::TravelController</text>
<polyline fill="none" stroke="black" points="306.303,-417 467.697,-417 "/>
<text text-anchor="start" x="314.303" y="-401.8" font-family="Times,serif" font-size="14.00">all</text>
<text text-anchor="start" x="314.303" y="-387.8" font-family="Times,serif" font-size="14.00">create</text>
<text text-anchor="start" x="314.303" y="-373.8" font-family="Times,serif" font-size="14.00">default_serializer_options</text>
<text text-anchor="start" x="314.303" y="-359.8" font-family="Times,serif" font-size="14.00">show</text>
<polyline fill="none" stroke="black" points="306.303,-353 467.697,-353 "/>
<polyline fill="none" stroke="black" points="306.303,-329 467.697,-329 "/>
<text text-anchor="start" x="314.303" y="-313.8" font-family="Times,serif" font-size="14.00">_layout</text>
</g>
<!-- Api::TypeVehicleController -->
<g id="node5" class="node"><title>Api::TypeVehicleController</title>
<path fill="none" stroke="black" d="M-258.046,269C-258.046,269 -109.954,269 -109.954,269 -103.954,269 -97.9541,263 -97.9541,257 -97.9541,257 -97.9541,149 -97.9541,149 -97.9541,143 -103.954,137 -109.954,137 -109.954,137 -258.046,137 -258.046,137 -264.046,137 -270.046,143 -270.046,149 -270.046,149 -270.046,257 -270.046,257 -270.046,263 -264.046,269 -258.046,269"/>
<text text-anchor="middle" x="-184" y="152.2" font-family="Times,serif" font-size="14.00">Api::TypeVehicleController</text>
<polyline fill="none" stroke="black" points="-270.046,159 -97.9541,159 "/>
<text text-anchor="start" x="-262.046" y="174.2" font-family="Times,serif" font-size="14.00">all</text>
<text text-anchor="start" x="-262.046" y="188.2" font-family="Times,serif" font-size="14.00">create</text>
<text text-anchor="start" x="-262.046" y="202.2" font-family="Times,serif" font-size="14.00">default_serializer_options</text>
<text text-anchor="start" x="-262.046" y="216.2" font-family="Times,serif" font-size="14.00">show</text>
<polyline fill="none" stroke="black" points="-270.046,223 -97.9541,223 "/>
<polyline fill="none" stroke="black" points="-270.046,247 -97.9541,247 "/>
<text text-anchor="start" x="-262.046" y="262.2" font-family="Times,serif" font-size="14.00">_layout</text>
</g>
<!-- Api::UserController -->
<g id="node6" class="node"><title>Api::UserController</title>
<path fill="none" stroke="black" d="M12.3032,287C12.3032,287 149.697,287 149.697,287 155.697,287 161.697,281 161.697,275 161.697,275 161.697,153 161.697,153 161.697,147 155.697,141 149.697,141 149.697,141 12.3032,141 12.3032,141 6.30322,141 0.303223,147 0.303223,153 0.303223,153 0.303223,275 0.303223,275 0.303223,281 6.30322,287 12.3032,287"/>
<text text-anchor="middle" x="81" y="156.2" font-family="Times,serif" font-size="14.00">Api::UserController</text>
<polyline fill="none" stroke="black" points="0.303223,163 161.697,163 "/>
<text text-anchor="start" x="8.30322" y="178.2" font-family="Times,serif" font-size="14.00">all</text>
<text text-anchor="start" x="8.30322" y="192.2" font-family="Times,serif" font-size="14.00">default_serializer_options</text>
<text text-anchor="start" x="8.30322" y="206.2" font-family="Times,serif" font-size="14.00">show</text>
<text text-anchor="start" x="8.30322" y="220.2" font-family="Times,serif" font-size="14.00">sign_in</text>
<text text-anchor="start" x="8.30322" y="234.2" font-family="Times,serif" font-size="14.00">sign_up</text>
<polyline fill="none" stroke="black" points="0.303223,241 161.697,241 "/>
<polyline fill="none" stroke="black" points="0.303223,265 161.697,265 "/>
<text text-anchor="start" x="8.30322" y="280.2" font-family="Times,serif" font-size="14.00">_layout</text>
</g>
<!-- Api::VechicleController -->
<g id="node7" class="node"><title>Api::VechicleController</title>
<path fill="none" stroke="black" d="M300.303,89C300.303,89 437.697,89 437.697,89 443.697,89 449.697,83 449.697,77 449.697,77 449.697,-45 449.697,-45 449.697,-51 443.697,-57 437.697,-57 437.697,-57 300.303,-57 300.303,-57 294.303,-57 288.303,-51 288.303,-45 288.303,-45 288.303,77 288.303,77 288.303,83 294.303,89 300.303,89"/>
<text text-anchor="middle" x="369" y="-41.8" font-family="Times,serif" font-size="14.00">Api::VechicleController</text>
<polyline fill="none" stroke="black" points="288.303,-35 449.697,-35 "/>
<text text-anchor="start" x="296.303" y="-19.8" font-family="Times,serif" font-size="14.00">all</text>
<text text-anchor="start" x="296.303" y="-5.8" font-family="Times,serif" font-size="14.00">create</text>
<text text-anchor="start" x="296.303" y="8.2" font-family="Times,serif" font-size="14.00">default_serializer_options</text>
<text text-anchor="start" x="296.303" y="22.2" font-family="Times,serif" font-size="14.00">show</text>
<text text-anchor="start" x="296.303" y="36.2" font-family="Times,serif" font-size="14.00">vechicle_for_user</text>
<polyline fill="none" stroke="black" points="288.303,43 449.697,43 "/>
<polyline fill="none" stroke="black" points="288.303,67 449.697,67 "/>
<text text-anchor="start" x="296.303" y="82.2" font-family="Times,serif" font-size="14.00">_layout</text>
</g>
<!-- ApplicationController -->
<g id="node8" class="node"><title>ApplicationController</title>
<path fill="none" stroke="black" d="M354.034,-91C354.034,-91 527.966,-91 527.966,-91 533.966,-91 539.966,-97 539.966,-103 539.966,-103 539.966,-169 539.966,-169 539.966,-175 533.966,-181 527.966,-181 527.966,-181 354.034,-181 354.034,-181 348.034,-181 342.034,-175 342.034,-169 342.034,-169 342.034,-103 342.034,-103 342.034,-97 348.034,-91 354.034,-91"/>
<text text-anchor="middle" x="441" y="-165.8" font-family="Times,serif" font-size="14.00">ApplicationController</text>
<polyline fill="none" stroke="black" points="342.034,-159 539.966,-159 "/>
<polyline fill="none" stroke="black" points="342.034,-135 539.966,-135 "/>
<text text-anchor="start" x="350.034" y="-119.8" font-family="Times,serif" font-size="14.00">configure_permitted_parameters</text>
<polyline fill="none" stroke="black" points="342.034,-113 539.966,-113 "/>
<text text-anchor="start" x="350.034" y="-97.8" font-family="Times,serif" font-size="14.00">_layout</text>
</g>
<!-- DemandTravelsController -->
<g id="node9" class="node"><title>DemandTravelsController</title>
<path fill="none" stroke="black" d="M-78.2334,107C-78.2334,107 60.2334,107 60.2334,107 66.2334,107 72.2334,101 72.2334,95 72.2334,95 72.2334,-83 72.2334,-83 72.2334,-89 66.2334,-95 60.2334,-95 60.2334,-95 -78.2334,-95 -78.2334,-95 -84.2334,-95 -90.2334,-89 -90.2334,-83 -90.2334,-83 -90.2334,95 -90.2334,95 -90.2334,101 -84.2334,107 -78.2334,107"/>
<text text-anchor="middle" x="-9" y="-79.8" font-family="Times,serif" font-size="14.00">DemandTravelsController</text>
<polyline fill="none" stroke="black" points="-90.2334,-73 72.2334,-73 "/>
<text text-anchor="start" x="-82.2334" y="-57.8" font-family="Times,serif" font-size="14.00">create</text>
<text text-anchor="start" x="-82.2334" y="-43.8" font-family="Times,serif" font-size="14.00">destroy</text>
<text text-anchor="start" x="-82.2334" y="-29.8" font-family="Times,serif" font-size="14.00">edit</text>
<text text-anchor="start" x="-82.2334" y="-15.8" font-family="Times,serif" font-size="14.00">index</text>
<text text-anchor="start" x="-82.2334" y="-1.8" font-family="Times,serif" font-size="14.00">new</text>
<text text-anchor="start" x="-82.2334" y="12.2" font-family="Times,serif" font-size="14.00">show</text>
<text text-anchor="start" x="-82.2334" y="26.2" font-family="Times,serif" font-size="14.00">update</text>
<polyline fill="none" stroke="black" points="-90.2334,33 72.2334,33 "/>
<polyline fill="none" stroke="black" points="-90.2334,57 72.2334,57 "/>
<text text-anchor="start" x="-82.2334" y="72.2" font-family="Times,serif" font-size="14.00">_layout</text>
<text text-anchor="start" x="-82.2334" y="86.2" font-family="Times,serif" font-size="14.00">demand_travel_params</text>
<text text-anchor="start" x="-82.2334" y="100.2" font-family="Times,serif" font-size="14.00">set_demand_travel</text>
</g>
<!-- HomeController -->
<g id="node10" class="node"><title>HomeController</title>
<path fill="none" stroke="black" d="M-329.879,-343C-329.879,-343 -246.121,-343 -246.121,-343 -240.121,-343 -234.121,-349 -234.121,-355 -234.121,-355 -234.121,-421 -234.121,-421 -234.121,-427 -240.121,-433 -246.121,-433 -246.121,-433 -329.879,-433 -329.879,-433 -335.879,-433 -341.879,-427 -341.879,-421 -341.879,-421 -341.879,-355 -341.879,-355 -341.879,-349 -335.879,-343 -329.879,-343"/>
<text text-anchor="middle" x="-288" y="-417.8" font-family="Times,serif" font-size="14.00">HomeController</text>
<polyline fill="none" stroke="black" points="-341.879,-411 -234.121,-411 "/>
<text text-anchor="start" x="-333.879" y="-395.8" font-family="Times,serif" font-size="14.00">index</text>
<polyline fill="none" stroke="black" points="-341.879,-389 -234.121,-389 "/>
<polyline fill="none" stroke="black" points="-341.879,-365 -234.121,-365 "/>
<text text-anchor="start" x="-333.879" y="-349.8" font-family="Times,serif" font-size="14.00">_layout</text>
</g>
<!-- OfferTravelsController -->
<g id="node11" class="node"><title>OfferTravelsController</title>
<path fill="none" stroke="black" d="M-41.5518,-127C-41.5518,-127 79.5518,-127 79.5518,-127 85.5518,-127 91.5518,-133 91.5518,-139 91.5518,-139 91.5518,-317 91.5518,-317 91.5518,-323 85.5518,-329 79.5518,-329 79.5518,-329 -41.5518,-329 -41.5518,-329 -47.5518,-329 -53.5518,-323 -53.5518,-317 -53.5518,-317 -53.5518,-139 -53.5518,-139 -53.5518,-133 -47.5518,-127 -41.5518,-127"/>
<text text-anchor="middle" x="19" y="-313.8" font-family="Times,serif" font-size="14.00">OfferTravelsController</text>
<polyline fill="none" stroke="black" points="-53.5518,-307 91.5518,-307 "/>
<text text-anchor="start" x="-45.5518" y="-291.8" font-family="Times,serif" font-size="14.00">create</text>
<text text-anchor="start" x="-45.5518" y="-277.8" font-family="Times,serif" font-size="14.00">destroy</text>
<text text-anchor="start" x="-45.5518" y="-263.8" font-family="Times,serif" font-size="14.00">edit</text>
<text text-anchor="start" x="-45.5518" y="-249.8" font-family="Times,serif" font-size="14.00">index</text>
<text text-anchor="start" x="-45.5518" y="-235.8" font-family="Times,serif" font-size="14.00">new</text>
<text text-anchor="start" x="-45.5518" y="-221.8" font-family="Times,serif" font-size="14.00">show</text>
<text text-anchor="start" x="-45.5518" y="-207.8" font-family="Times,serif" font-size="14.00">update</text>
<polyline fill="none" stroke="black" points="-53.5518,-201 91.5518,-201 "/>
<polyline fill="none" stroke="black" points="-53.5518,-177 91.5518,-177 "/>
<text text-anchor="start" x="-45.5518" y="-161.8" font-family="Times,serif" font-size="14.00">_layout</text>
<text text-anchor="start" x="-45.5518" y="-147.8" font-family="Times,serif" font-size="14.00">offer_travel_params</text>
<text text-anchor="start" x="-45.5518" y="-133.8" font-family="Times,serif" font-size="14.00">set_offer_travel</text>
</g>
<!-- TravelsController -->
<g id="node12" class="node"><title>TravelsController</title>
<path fill="none" stroke="black" d="M-185.52,-199C-185.52,-199 -94.4805,-199 -94.4805,-199 -88.4805,-199 -82.4805,-205 -82.4805,-211 -82.4805,-211 -82.4805,-389 -82.4805,-389 -82.4805,-395 -88.4805,-401 -94.4805,-401 -94.4805,-401 -185.52,-401 -185.52,-401 -191.52,-401 -197.52,-395 -197.52,-389 -197.52,-389 -197.52,-211 -197.52,-211 -197.52,-205 -191.52,-199 -185.52,-199"/>
<text text-anchor="middle" x="-140" y="-385.8" font-family="Times,serif" font-size="14.00">TravelsController</text>
<polyline fill="none" stroke="black" points="-197.52,-379 -82.4805,-379 "/>
<text text-anchor="start" x="-189.52" y="-363.8" font-family="Times,serif" font-size="14.00">create</text>
<text text-anchor="start" x="-189.52" y="-349.8" font-family="Times,serif" font-size="14.00">destroy</text>
<text text-anchor="start" x="-189.52" y="-335.8" font-family="Times,serif" font-size="14.00">edit</text>
<text text-anchor="start" x="-189.52" y="-321.8" font-family="Times,serif" font-size="14.00">index</text>
<text text-anchor="start" x="-189.52" y="-307.8" font-family="Times,serif" font-size="14.00">new</text>
<text text-anchor="start" x="-189.52" y="-293.8" font-family="Times,serif" font-size="14.00">show</text>
<text text-anchor="start" x="-189.52" y="-279.8" font-family="Times,serif" font-size="14.00">update</text>
<polyline fill="none" stroke="black" points="-197.52,-273 -82.4805,-273 "/>
<polyline fill="none" stroke="black" points="-197.52,-249 -82.4805,-249 "/>
<text text-anchor="start" x="-189.52" y="-233.8" font-family="Times,serif" font-size="14.00">_layout</text>
<text text-anchor="start" x="-189.52" y="-219.8" font-family="Times,serif" font-size="14.00">set_travel</text>
<text text-anchor="start" x="-189.52" y="-205.8" font-family="Times,serif" font-size="14.00">travel_params</text>
</g>
<!-- TypeVehiclesController -->
<g id="node13" class="node"><title>TypeVehiclesController</title>
<path fill="none" stroke="black" d="M119.62,107C119.62,107 244.38,107 244.38,107 250.38,107 256.38,101 256.38,95 256.38,95 256.38,-83 256.38,-83 256.38,-89 250.38,-95 244.38,-95 244.38,-95 119.62,-95 119.62,-95 113.62,-95 107.62,-89 107.62,-83 107.62,-83 107.62,95 107.62,95 107.62,101 113.62,107 119.62,107"/>
<text text-anchor="middle" x="182" y="-79.8" font-family="Times,serif" font-size="14.00">TypeVehiclesController</text>
<polyline fill="none" stroke="black" points="107.62,-73 256.38,-73 "/>
<text text-anchor="start" x="115.62" y="-57.8" font-family="Times,serif" font-size="14.00">create</text>
<text text-anchor="start" x="115.62" y="-43.8" font-family="Times,serif" font-size="14.00">destroy</text>
<text text-anchor="start" x="115.62" y="-29.8" font-family="Times,serif" font-size="14.00">edit</text>
<text text-anchor="start" x="115.62" y="-15.8" font-family="Times,serif" font-size="14.00">index</text>
<text text-anchor="start" x="115.62" y="-1.8" font-family="Times,serif" font-size="14.00">new</text>
<text text-anchor="start" x="115.62" y="12.2" font-family="Times,serif" font-size="14.00">show</text>
<text text-anchor="start" x="115.62" y="26.2" font-family="Times,serif" font-size="14.00">update</text>
<polyline fill="none" stroke="black" points="107.62,33 256.38,33 "/>
<polyline fill="none" stroke="black" points="107.62,57 256.38,57 "/>
<text text-anchor="start" x="115.62" y="72.2" font-family="Times,serif" font-size="14.00">_layout</text>
<text text-anchor="start" x="115.62" y="86.2" font-family="Times,serif" font-size="14.00">set_type_vehicle</text>
<text text-anchor="start" x="115.62" y="100.2" font-family="Times,serif" font-size="14.00">type_vehicle_params</text>
</g>
<!-- VechiclesController -->
<g id="node14" class="node"><title>VechiclesController</title>
<path fill="none" stroke="black" d="M-239.593,35C-239.593,35 -136.407,35 -136.407,35 -130.407,35 -124.407,29 -124.407,23 -124.407,23 -124.407,-155 -124.407,-155 -124.407,-161 -130.407,-167 -136.407,-167 -136.407,-167 -239.593,-167 -239.593,-167 -245.593,-167 -251.593,-161 -251.593,-155 -251.593,-155 -251.593,23 -251.593,23 -251.593,29 -245.593,35 -239.593,35"/>
<text text-anchor="middle" x="-188" y="-151.8" font-family="Times,serif" font-size="14.00">VechiclesController</text>
<polyline fill="none" stroke="black" points="-251.593,-145 -124.407,-145 "/>
<text text-anchor="start" x="-243.593" y="-129.8" font-family="Times,serif" font-size="14.00">create</text>
<text text-anchor="start" x="-243.593" y="-115.8" font-family="Times,serif" font-size="14.00">destroy</text>
<text text-anchor="start" x="-243.593" y="-101.8" font-family="Times,serif" font-size="14.00">edit</text>
<text text-anchor="start" x="-243.593" y="-87.8" font-family="Times,serif" font-size="14.00">index</text>
<text text-anchor="start" x="-243.593" y="-73.8" font-family="Times,serif" font-size="14.00">new</text>
<text text-anchor="start" x="-243.593" y="-59.8" font-family="Times,serif" font-size="14.00">show</text>
<text text-anchor="start" x="-243.593" y="-45.8" font-family="Times,serif" font-size="14.00">update</text>
<polyline fill="none" stroke="black" points="-251.593,-39 -124.407,-39 "/>
<polyline fill="none" stroke="black" points="-251.593,-15 -124.407,-15 "/>
<text text-anchor="start" x="-243.593" y="0.2" font-family="Times,serif" font-size="14.00">_layout</text>
<text text-anchor="start" x="-243.593" y="14.2" font-family="Times,serif" font-size="14.00">set_vechicle</text>
<text text-anchor="start" x="-243.593" y="28.2" font-family="Times,serif" font-size="14.00">vechicle_params</text>
</g>
</g>
</svg>
