<?xml version="1.0" encoding="UTF-8" standalone="no"?>
<!DOCTYPE svg PUBLIC "-//W3C//DTD SVG 1.1//EN"
 "http://www.w3.org/Graphics/SVG/1.1/DTD/svg11.dtd">
<!-- Generated by graphviz version 2.38.0 (20140413.2041)
 -->
<!-- Title: models_diagram Pages: 1 -->
<svg width="513pt" height="297pt"
 viewBox="0.00 0.00 512.87 297.00" xmlns="http://www.w3.org/2000/svg" xmlns:xlink="http://www.w3.org/1999/xlink">
<g id="graph0" class="graph" transform="scale(1 1) rotate(0) translate(4 293)">
<title>models_diagram</title>
<polygon fill="none" stroke="none" points="-4,4 -4,-293 508.865,-293 508.865,4 -4,4"/>
<!-- _diagram_info -->
<g id="node1" class="node"><title>_diagram_info</title>
<text text-anchor="start" x="8" y="-274.6" font-family="Times,serif" font-size="13.00">Models diagram</text>
<text text-anchor="start" x="8" y="-261.6" font-family="Times,serif" font-size="13.00">Date: Sep 15 2017 &#45; 13:01</text>
<text text-anchor="start" x="8" y="-248.6" font-family="Times,serif" font-size="13.00">Migration version: 20170913002902</text>
<text text-anchor="start" x="8" y="-235.6" font-family="Times,serif" font-size="13.00">Generated by RailRoady 1.5.2</text>
<text text-anchor="start" x="8" y="-222.6" font-family="Times,serif" font-size="13.00">http://railroady.prestonlee.com</text>
</g>
<!-- DemandTravel -->
<g id="node2" class="node"><title>DemandTravel</title>
<ellipse fill="none" stroke="black" cx="351.688" cy="-90" rx="62.6707" ry="18"/>
<text text-anchor="middle" x="351.688" y="-85.8" font-family="Times,serif" font-size="14.00">DemandTravel</text>
</g>
<!-- Travel -->
<g id="node4" class="node"><title>Travel</title>
<ellipse fill="none" stroke="black" cx="305.688" cy="-18" rx="32.7528" ry="18"/>
<text text-anchor="middle" x="305.688" y="-13.8" font-family="Times,serif" font-size="14.00">Travel</text>
</g>
<!-- DemandTravel&#45;&gt;Travel -->
<g id="edge1" class="edge"><title>DemandTravel&#45;&gt;Travel</title>
<path fill="none" stroke="#8729de" d="M336.032,-65.1763C331.487,-58.2599 326.515,-50.6931 321.934,-43.7229"/>
<ellipse fill="none" stroke="#8729de" cx="338.356" cy="-68.7121" rx="4.00002" ry="4.00002"/>
<polygon fill="#8729de" stroke="#8729de" points="321.896,-43.6641 320.164,-32.8357 319.15,-39.4855 316.404,-35.307 316.404,-35.307 316.404,-35.307 319.15,-39.4855 312.643,-37.7783 321.896,-43.6641 321.896,-43.6641"/>
</g>
<!-- OfferTravel -->
<g id="node3" class="node"><title>OfferTravel</title>
<ellipse fill="none" stroke="black" cx="268.688" cy="-162" rx="51.7346" ry="18"/>
<text text-anchor="middle" x="268.688" y="-157.8" font-family="Times,serif" font-size="14.00">OfferTravel</text>
</g>
<!-- OfferTravel&#45;&gt;DemandTravel -->
<g id="edge2" class="edge"><title>OfferTravel&#45;&gt;DemandTravel</title>
<path fill="none" stroke="#dd5216" d="M293.756,-139.858C303.528,-131.616 314.75,-122.152 324.699,-113.762"/>
<ellipse fill="none" stroke="#dd5216" cx="290.579" cy="-142.537" rx="4.00002" ry="4.00002"/>
<polygon fill="#dd5216" stroke="#dd5216" points="324.708,-113.754 335.253,-110.747 328.53,-110.531 332.352,-107.307 332.352,-107.307 332.352,-107.307 328.53,-110.531 329.451,-103.867 324.708,-113.754 324.708,-113.754"/>
</g>
<!-- OfferTravel&#45;&gt;Travel -->
<g id="edge3" class="edge"><title>OfferTravel&#45;&gt;Travel</title>
<path fill="none" stroke="#40b7de" d="M269.582,-135.637C270.756,-117.576 273.461,-92.901 279.688,-72 282.451,-62.7225 286.715,-53.0761 290.996,-44.596"/>
<ellipse fill="none" stroke="#40b7de" cx="269.342" cy="-139.933" rx="4" ry="4"/>
<polygon fill="#40b7de" stroke="#40b7de" points="291.079,-44.4378 299.734,-37.7039 293.418,-40.0184 295.757,-35.5991 295.757,-35.5991 295.757,-35.5991 293.418,-40.0184 291.779,-33.4942 291.079,-44.4378 291.079,-44.4378"/>
</g>
<!-- TypeVehicle -->
<g id="node5" class="node"><title>TypeVehicle</title>
<ellipse fill="none" stroke="black" cx="450.688" cy="-252.5" rx="54.3553" ry="18"/>
<text text-anchor="middle" x="450.688" y="-248.3" font-family="Times,serif" font-size="14.00">TypeVehicle</text>
</g>
<!-- Vehicle -->
<g id="node8" class="node"><title>Vehicle</title>
<ellipse fill="none" stroke="black" cx="433.688" cy="-162" rx="36.7489" ry="18"/>
<text text-anchor="middle" x="433.688" y="-157.8" font-family="Times,serif" font-size="14.00">Vehicle</text>
</g>
<!-- TypeVehicle&#45;&gt;Vehicle -->
<g id="edge4" class="edge"><title>TypeVehicle&#45;&gt;Vehicle</title>
<path fill="none" stroke="#b6b435" d="M445.826,-226.189C443.649,-214.855 441.079,-201.479 438.866,-189.958"/>
<ellipse fill="none" stroke="#b6b435" cx="446.655" cy="-230.508" rx="4.00001" ry="4.00001"/>
<polygon fill="#b6b435" stroke="#b6b435" points="438.842,-189.832 441.375,-179.162 437.899,-184.922 436.955,-180.011 436.955,-180.011 436.955,-180.011 437.899,-184.922 432.536,-180.86 438.842,-189.832 438.842,-189.832"/>
</g>
<!-- User -->
<g id="node6" class="node"><title>User</title>
<ellipse fill="none" stroke="black" cx="351.688" cy="-252.5" rx="27" ry="18"/>
<text text-anchor="middle" x="351.688" y="-248.3" font-family="Times,serif" font-size="14.00">User</text>
</g>
<!-- User&#45;&gt;DemandTravel -->
<g id="edge7" class="edge"><title>User&#45;&gt;DemandTravel</title>
<path fill="none" stroke="#60f315" d="M351.688,-226.079C351.688,-196.675 351.688,-148.455 351.688,-118.284"/>
<ellipse fill="none" stroke="#60f315" cx="351.688" cy="-230.324" rx="4" ry="4"/>
<polygon fill="#60f315" stroke="#60f315" points="351.688,-118.053 356.188,-108.053 351.688,-113.053 351.688,-108.053 351.688,-108.053 351.688,-108.053 351.688,-113.053 347.188,-108.053 351.688,-118.053 351.688,-118.053"/>
</g>
<!-- User&#45;&gt;OfferTravel -->
<g id="edge6" class="edge"><title>User&#45;&gt;OfferTravel</title>
<path fill="none" stroke="#7d6117" d="M332.436,-230.973C320.151,-217.873 304.173,-200.836 291.287,-187.096"/>
<ellipse fill="none" stroke="#7d6117" cx="335.246" cy="-233.968" rx="4.00002" ry="4.00002"/>
<polygon fill="#7d6117" stroke="#7d6117" points="290.949,-186.736 287.39,-176.364 287.528,-183.089 284.108,-179.442 284.108,-179.442 284.108,-179.442 287.528,-183.089 280.826,-182.52 290.949,-186.736 290.949,-186.736"/>
</g>
<!-- User&#45;&gt;Vehicle -->
<g id="edge5" class="edge"><title>User&#45;&gt;Vehicle</title>
<path fill="none" stroke="#dad782" d="M370.779,-230.895C383.082,-217.617 399.11,-200.318 411.909,-186.505"/>
<ellipse fill="none" stroke="#dad782" cx="367.947" cy="-233.952" rx="4.00002" ry="4.00002"/>
<polygon fill="#dad782" stroke="#dad782" points="412.222,-186.167 422.32,-181.89 415.621,-182.499 419.019,-178.832 419.019,-178.832 419.019,-178.832 415.621,-182.499 415.718,-175.773 412.222,-186.167 412.222,-186.167"/>
</g>
<!-- Vechicle -->
<g id="node7" class="node"><title>Vechicle</title>
<ellipse fill="none" stroke="black" cx="265.688" cy="-252.5" rx="40.5989" ry="18"/>
<text text-anchor="middle" x="265.688" y="-248.3" font-family="Times,serif" font-size="14.00">Vechicle</text>
</g>
<!-- Vechicle&#45;&gt;OfferTravel -->
<g id="edge8" class="edge"><title>Vechicle&#45;&gt;OfferTravel</title>
<path fill="none" stroke="#414e97" d="M266.546,-226.189C266.926,-214.971 267.374,-201.752 267.762,-190.311"/>
<ellipse fill="none" stroke="#414e97" cx="266.402" cy="-230.439" rx="4" ry="4"/>
<polygon fill="#414e97" stroke="#414e97" points="267.772,-190.006 272.609,-180.164 267.942,-185.008 268.111,-180.011 268.111,-180.011 268.111,-180.011 267.942,-185.008 263.614,-179.859 267.772,-190.006 267.772,-190.006"/>
</g>
</g>
</svg>
