<?xml version="1.0" encoding="UTF-8" standalone="no"?>
<!DOCTYPE svg PUBLIC "-//W3C//DTD SVG 1.1//EN"
 "http://www.w3.org/Graphics/SVG/1.1/DTD/svg11.dtd">
<!-- Generated by graphviz version 2.38.0 (20140413.2041)
 -->
<!-- Title: models_diagram Pages: 1 -->
<svg width="1084pt" height="786pt"
 viewBox="0.00 0.00 1083.55 786.00" xmlns="http://www.w3.org/2000/svg" xmlns:xlink="http://www.w3.org/1999/xlink">
<g id="graph0" class="graph" transform="scale(1 1) rotate(0) translate(4 782)">
<title>models_diagram</title>
<polygon fill="none" stroke="none" points="-4,4 -4,-782 1079.55,-782 1079.55,4 -4,4"/>
<!-- _diagram_info -->
<g id="node1" class="node"><title>_diagram_info</title>
<text text-anchor="start" x="8" y="-686.6" font-family="Times,serif" font-size="13.00">Models diagram</text>
<text text-anchor="start" x="8" y="-673.6" font-family="Times,serif" font-size="13.00">Date: Sep 15 2017 &#45; 13:01</text>
<text text-anchor="start" x="8" y="-660.6" font-family="Times,serif" font-size="13.00">Migration version: 20170913002902</text>
<text text-anchor="start" x="8" y="-647.6" font-family="Times,serif" font-size="13.00">Generated by RailRoady 1.5.2</text>
<text text-anchor="start" x="8" y="-634.6" font-family="Times,serif" font-size="13.00">http://railroady.prestonlee.com</text>
</g>
<!-- DemandTravel -->
<g id="node2" class="node"><title>DemandTravel</title>
<path fill="none" stroke="black" d="M538.825,-179.5C538.825,-179.5 762.55,-179.5 762.55,-179.5 768.55,-179.5 774.55,-185.5 774.55,-191.5 774.55,-191.5 774.55,-295.5 774.55,-295.5 774.55,-301.5 768.55,-307.5 762.55,-307.5 762.55,-307.5 538.825,-307.5 538.825,-307.5 532.825,-307.5 526.825,-301.5 526.825,-295.5 526.825,-295.5 526.825,-191.5 526.825,-191.5 526.825,-185.5 532.825,-179.5 538.825,-179.5"/>
<text text-anchor="middle" x="650.688" y="-292.3" font-family="Times,serif" font-size="14.00">DemandTravel</text>
<polyline fill="none" stroke="black" points="526.825,-285.5 774.55,-285.5 "/>
<text text-anchor="start" x="534.825" y="-270.3" font-family="Times,serif" font-size="14.00">id :integer</text>
<text text-anchor="start" x="534.825" y="-256.3" font-family="Times,serif" font-size="14.00">user_id :integer</text>
<text text-anchor="start" x="534.825" y="-242.3" font-family="Times,serif" font-size="14.00">offer_travel_id :integer</text>
<text text-anchor="start" x="534.825" y="-228.3" font-family="Times,serif" font-size="14.00">accept :boolean</text>
<text text-anchor="start" x="534.825" y="-214.3" font-family="Times,serif" font-size="14.00">state :boolean</text>
<text text-anchor="start" x="534.825" y="-200.3" font-family="Times,serif" font-size="14.00">created_at :timestamp without time zone</text>
<text text-anchor="start" x="534.825" y="-186.3" font-family="Times,serif" font-size="14.00">updated_at :timestamp without time zone</text>
</g>
<!-- Travel -->
<g id="node4" class="node"><title>Travel</title>
<path fill="none" stroke="black" d="M462.825,-0.5C462.825,-0.5 686.55,-0.5 686.55,-0.5 692.55,-0.5 698.55,-6.5 698.55,-12.5 698.55,-12.5 698.55,-130.5 698.55,-130.5 698.55,-136.5 692.55,-142.5 686.55,-142.5 686.55,-142.5 462.825,-142.5 462.825,-142.5 456.825,-142.5 450.825,-136.5 450.825,-130.5 450.825,-130.5 450.825,-12.5 450.825,-12.5 450.825,-6.5 456.825,-0.5 462.825,-0.5"/>
<text text-anchor="middle" x="574.688" y="-127.3" font-family="Times,serif" font-size="14.00">Travel</text>
<polyline fill="none" stroke="black" points="450.825,-120.5 698.55,-120.5 "/>
<text text-anchor="start" x="458.825" y="-105.3" font-family="Times,serif" font-size="14.00">id :integer</text>
<text text-anchor="start" x="458.825" y="-91.3" font-family="Times,serif" font-size="14.00">offer_travel_id :integer</text>
<text text-anchor="start" x="458.825" y="-77.3" font-family="Times,serif" font-size="14.00">demand_travel_id :integer</text>
<text text-anchor="start" x="458.825" y="-63.3" font-family="Times,serif" font-size="14.00">state :boolean</text>
<text text-anchor="start" x="458.825" y="-49.3" font-family="Times,serif" font-size="14.00">calification_offer :integer</text>
<text text-anchor="start" x="458.825" y="-35.3" font-family="Times,serif" font-size="14.00">calification_demand :integer</text>
<text text-anchor="start" x="458.825" y="-21.3" font-family="Times,serif" font-size="14.00">created_at :timestamp without time zone</text>
<text text-anchor="start" x="458.825" y="-7.3" font-family="Times,serif" font-size="14.00">updated_at :timestamp without time zone</text>
</g>
<!-- DemandTravel&#45;&gt;Travel -->
<g id="edge1" class="edge"><title>DemandTravel&#45;&gt;Travel</title>
<path fill="none" stroke="#6738f0" d="M619.118,-171.883C616.222,-165.405 613.275,-158.813 610.346,-152.262"/>
<ellipse fill="none" stroke="#6738f0" cx="620.756" cy="-175.547" rx="4.00002" ry="4.00002"/>
<polygon fill="#6738f0" stroke="#6738f0" points="610.158,-151.841 610.185,-140.875 608.117,-147.276 606.076,-142.711 606.076,-142.711 606.076,-142.711 608.117,-147.276 601.968,-144.548 610.158,-151.841 610.158,-151.841"/>
</g>
<!-- OfferTravel -->
<g id="node3" class="node"><title>OfferTravel</title>
<path fill="none" stroke="black" d="M386.825,-344.5C386.825,-344.5 610.55,-344.5 610.55,-344.5 616.55,-344.5 622.55,-350.5 622.55,-356.5 622.55,-356.5 622.55,-502.5 622.55,-502.5 622.55,-508.5 616.55,-514.5 610.55,-514.5 610.55,-514.5 386.825,-514.5 386.825,-514.5 380.825,-514.5 374.825,-508.5 374.825,-502.5 374.825,-502.5 374.825,-356.5 374.825,-356.5 374.825,-350.5 380.825,-344.5 386.825,-344.5"/>
<text text-anchor="middle" x="498.688" y="-499.3" font-family="Times,serif" font-size="14.00">OfferTravel</text>
<polyline fill="none" stroke="black" points="374.825,-492.5 622.55,-492.5 "/>
<text text-anchor="start" x="382.825" y="-477.3" font-family="Times,serif" font-size="14.00">id :integer</text>
<text text-anchor="start" x="382.825" y="-463.3" font-family="Times,serif" font-size="14.00">user_id :integer</text>
<text text-anchor="start" x="382.825" y="-449.3" font-family="Times,serif" font-size="14.00">vechicle_id :integer</text>
<text text-anchor="start" x="382.825" y="-435.3" font-family="Times,serif" font-size="14.00">coordenada_start :double precision</text>
<text text-anchor="start" x="382.825" y="-421.3" font-family="Times,serif" font-size="14.00">coordenada_end :double precision</text>
<text text-anchor="start" x="382.825" y="-407.3" font-family="Times,serif" font-size="14.00">name_start :character varying</text>
<text text-anchor="start" x="382.825" y="-393.3" font-family="Times,serif" font-size="14.00">name_end :character varying</text>
<text text-anchor="start" x="382.825" y="-379.3" font-family="Times,serif" font-size="14.00">state :boolean</text>
<text text-anchor="start" x="382.825" y="-365.3" font-family="Times,serif" font-size="14.00">created_at :timestamp without time zone</text>
<text text-anchor="start" x="382.825" y="-351.3" font-family="Times,serif" font-size="14.00">updated_at :timestamp without time zone</text>
</g>
<!-- OfferTravel&#45;&gt;DemandTravel -->
<g id="edge2" class="edge"><title>OfferTravel&#45;&gt;DemandTravel</title>
<path fill="none" stroke="#831920" d="M573.488,-337.953C579.687,-330.448 585.897,-322.931 591.953,-315.6"/>
<ellipse fill="none" stroke="#831920" cx="570.785" cy="-341.224" rx="4.00002" ry="4.00002"/>
<polygon fill="#831920" stroke="#831920" points="592.086,-315.438 601.925,-310.595 595.271,-311.584 598.455,-307.729 598.455,-307.729 598.455,-307.729 595.271,-311.584 594.986,-304.863 592.086,-315.438 592.086,-315.438"/>
</g>
<!-- OfferTravel&#45;&gt;Travel -->
<g id="edge3" class="edge"><title>OfferTravel&#45;&gt;Travel</title>
<path fill="none" stroke="#565f27" d="M496.677,-336.185C497.885,-288.419 502.916,-229.66 517.688,-179 520.324,-169.96 523.788,-160.815 527.71,-151.879"/>
<ellipse fill="none" stroke="#565f27" cx="496.589" cy="-340.361" rx="4" ry="4"/>
<polygon fill="#565f27" stroke="#565f27" points="527.773,-151.743 536.036,-144.535 529.86,-147.2 531.947,-142.656 531.947,-142.656 531.947,-142.656 529.86,-147.2 527.858,-140.778 527.773,-151.743 527.773,-151.743"/>
</g>
<!-- TypeVehicle -->
<g id="node5" class="node"><title>TypeVehicle</title>
<path fill="none" stroke="black" d="M839.825,-621.5C839.825,-621.5 1063.55,-621.5 1063.55,-621.5 1069.55,-621.5 1075.55,-627.5 1075.55,-633.5 1075.55,-633.5 1075.55,-695.5 1075.55,-695.5 1075.55,-701.5 1069.55,-707.5 1063.55,-707.5 1063.55,-707.5 839.825,-707.5 839.825,-707.5 833.825,-707.5 827.825,-701.5 827.825,-695.5 827.825,-695.5 827.825,-633.5 827.825,-633.5 827.825,-627.5 833.825,-621.5 839.825,-621.5"/>
<text text-anchor="middle" x="951.688" y="-692.3" font-family="Times,serif" font-size="14.00">TypeVehicle</text>
<polyline fill="none" stroke="black" points="827.825,-685.5 1075.55,-685.5 "/>
<text text-anchor="start" x="835.825" y="-670.3" font-family="Times,serif" font-size="14.00">id :integer</text>
<text text-anchor="start" x="835.825" y="-656.3" font-family="Times,serif" font-size="14.00">name :character varying</text>
<text text-anchor="start" x="835.825" y="-642.3" font-family="Times,serif" font-size="14.00">created_at :timestamp without time zone</text>
<text text-anchor="start" x="835.825" y="-628.3" font-family="Times,serif" font-size="14.00">updated_at :timestamp without time zone</text>
</g>
<!-- Vehicle -->
<g id="node8" class="node"><title>Vehicle</title>
<ellipse fill="none" stroke="black" cx="833.688" cy="-429.5" rx="36.7489" ry="18"/>
<text text-anchor="middle" x="833.688" y="-425.3" font-family="Times,serif" font-size="14.00">Vehicle</text>
</g>
<!-- TypeVehicle&#45;&gt;Vehicle -->
<g id="edge4" class="edge"><title>TypeVehicle&#45;&gt;Vehicle</title>
<path fill="none" stroke="#5495cb" d="M926.665,-614.091C902.268,-565.918 866.113,-494.526 846.866,-456.522"/>
<ellipse fill="none" stroke="#5495cb" cx="928.512" cy="-617.737" rx="4.00002" ry="4.00002"/>
<polygon fill="#5495cb" stroke="#5495cb" points="846.65,-456.095 846.147,-445.141 844.391,-451.635 842.132,-447.174 842.132,-447.174 842.132,-447.174 844.391,-451.635 838.118,-449.207 846.65,-456.095 846.65,-456.095"/>
</g>
<!-- User -->
<g id="node6" class="node"><title>User</title>
<path fill="none" stroke="black" d="M503.053,-551.5C503.053,-551.5 798.323,-551.5 798.323,-551.5 804.323,-551.5 810.323,-557.5 810.323,-563.5 810.323,-563.5 810.323,-765.5 810.323,-765.5 810.323,-771.5 804.323,-777.5 798.323,-777.5 798.323,-777.5 503.053,-777.5 503.053,-777.5 497.053,-777.5 491.053,-771.5 491.053,-765.5 491.053,-765.5 491.053,-563.5 491.053,-563.5 491.053,-557.5 497.053,-551.5 503.053,-551.5"/>
<text text-anchor="middle" x="650.688" y="-762.3" font-family="Times,serif" font-size="14.00">User</text>
<polyline fill="none" stroke="black" points="491.053,-755.5 810.323,-755.5 "/>
<text text-anchor="start" x="499.053" y="-740.3" font-family="Times,serif" font-size="14.00">id :integer</text>
<text text-anchor="start" x="499.053" y="-726.3" font-family="Times,serif" font-size="14.00">email :character varying</text>
<text text-anchor="start" x="499.053" y="-712.3" font-family="Times,serif" font-size="14.00">encrypted_password :character varying</text>
<text text-anchor="start" x="499.053" y="-698.3" font-family="Times,serif" font-size="14.00">reset_password_token :character varying</text>
<text text-anchor="start" x="499.053" y="-684.3" font-family="Times,serif" font-size="14.00">reset_password_sent_at :timestamp without time zone</text>
<text text-anchor="start" x="499.053" y="-670.3" font-family="Times,serif" font-size="14.00">remember_created_at :timestamp without time zone</text>
<text text-anchor="start" x="499.053" y="-656.3" font-family="Times,serif" font-size="14.00">sign_in_count :integer</text>
<text text-anchor="start" x="499.053" y="-642.3" font-family="Times,serif" font-size="14.00">current_sign_in_at :timestamp without time zone</text>
<text text-anchor="start" x="499.053" y="-628.3" font-family="Times,serif" font-size="14.00">last_sign_in_at :timestamp without time zone</text>
<text text-anchor="start" x="499.053" y="-614.3" font-family="Times,serif" font-size="14.00">current_sign_in_ip :inet</text>
<text text-anchor="start" x="499.053" y="-600.3" font-family="Times,serif" font-size="14.00">last_sign_in_ip :inet</text>
<text text-anchor="start" x="499.053" y="-586.3" font-family="Times,serif" font-size="14.00">created_at :timestamp without time zone</text>
<text text-anchor="start" x="499.053" y="-572.3" font-family="Times,serif" font-size="14.00">updated_at :timestamp without time zone</text>
<text text-anchor="start" x="499.053" y="-558.3" font-family="Times,serif" font-size="14.00">birthday :date</text>
</g>
<!-- User&#45;&gt;DemandTravel -->
<g id="edge7" class="edge"><title>User&#45;&gt;DemandTravel</title>
<path fill="none" stroke="#41eb3e" d="M650.688,-543.175C650.688,-470.407 650.688,-379.991 650.688,-317.816"/>
<ellipse fill="none" stroke="#41eb3e" cx="650.688" cy="-547.491" rx="4" ry="4"/>
<polygon fill="#41eb3e" stroke="#41eb3e" points="650.688,-317.703 655.188,-307.703 650.688,-312.703 650.688,-307.703 650.688,-307.703 650.688,-307.703 650.688,-312.703 646.188,-307.703 650.688,-317.703 650.688,-317.703"/>
</g>
<!-- User&#45;&gt;OfferTravel -->
<g id="edge6" class="edge"><title>User&#45;&gt;OfferTravel</title>
<path fill="none" stroke="#b54996" d="M573.045,-544.481C568.437,-537.418 563.838,-530.368 559.314,-523.434"/>
<ellipse fill="none" stroke="#b54996" cx="575.396" cy="-548.086" rx="4.00002" ry="4.00002"/>
<polygon fill="#b54996" stroke="#b54996" points="559.093,-523.095 557.398,-512.261 556.361,-518.908 553.63,-514.72 553.63,-514.72 553.63,-514.72 556.361,-518.908 549.861,-517.179 559.093,-523.095 559.093,-523.095"/>
</g>
<!-- User&#45;&gt;Vehicle -->
<g id="edge5" class="edge"><title>User&#45;&gt;Vehicle</title>
<path fill="none" stroke="#5b23df" d="M743.994,-544.7C770.905,-510.437 797.607,-476.439 814.785,-454.568"/>
<ellipse fill="none" stroke="#5b23df" cx="741.174" cy="-548.29" rx="4.00002" ry="4.00002"/>
<polygon fill="#5b23df" stroke="#5b23df" points="814.924,-454.391 824.639,-449.306 818.012,-450.459 821.1,-446.527 821.1,-446.527 821.1,-446.527 818.012,-450.459 817.561,-443.747 814.924,-454.391 814.924,-454.391"/>
</g>
<!-- Vechicle -->
<g id="node7" class="node"><title>Vechicle</title>
<path fill="none" stroke="black" d="M237.825,-607.5C237.825,-607.5 461.55,-607.5 461.55,-607.5 467.55,-607.5 473.55,-613.5 473.55,-619.5 473.55,-619.5 473.55,-709.5 473.55,-709.5 473.55,-715.5 467.55,-721.5 461.55,-721.5 461.55,-721.5 237.825,-721.5 237.825,-721.5 231.825,-721.5 225.825,-715.5 225.825,-709.5 225.825,-709.5 225.825,-619.5 225.825,-619.5 225.825,-613.5 231.825,-607.5 237.825,-607.5"/>
<text text-anchor="middle" x="349.688" y="-706.3" font-family="Times,serif" font-size="14.00">Vechicle</text>
<polyline fill="none" stroke="black" points="225.825,-699.5 473.55,-699.5 "/>
<text text-anchor="start" x="233.825" y="-684.3" font-family="Times,serif" font-size="14.00">id :integer</text>
<text text-anchor="start" x="233.825" y="-670.3" font-family="Times,serif" font-size="14.00">user_id :integer</text>
<text text-anchor="start" x="233.825" y="-656.3" font-family="Times,serif" font-size="14.00">type_vehicle_id :integer</text>
<text text-anchor="start" x="233.825" y="-642.3" font-family="Times,serif" font-size="14.00">model :character varying</text>
<text text-anchor="start" x="233.825" y="-628.3" font-family="Times,serif" font-size="14.00">created_at :timestamp without time zone</text>
<text text-anchor="start" x="233.825" y="-614.3" font-family="Times,serif" font-size="14.00">updated_at :timestamp without time zone</text>
</g>
<!-- Vechicle&#45;&gt;OfferTravel -->
<g id="edge8" class="edge"><title>Vechicle&#45;&gt;OfferTravel</title>
<path fill="none" stroke="#cf990d" d="M390.01,-600.446C405.152,-576.767 422.7,-549.327 439.218,-523.496"/>
<ellipse fill="none" stroke="#cf990d" cx="387.722" cy="-604.024" rx="4.00002" ry="4.00002"/>
<polygon fill="#cf990d" stroke="#cf990d" points="439.389,-523.23 448.567,-517.229 442.082,-519.017 444.776,-514.805 444.776,-514.805 444.776,-514.805 442.082,-519.017 440.985,-512.381 439.389,-523.23 439.389,-523.23"/>
</g>
</g>
</svg>
